<?xml version="1.0" standalone="no"?>
<!DOCTYPE svg PUBLIC "-//W3C//DTD SVG 20010904//EN"
 "http://www.w3.org/TR/2001/REC-SVG-20010904/DTD/svg10.dtd">
<svg version="1.0" xmlns="http://www.w3.org/2000/svg"
 width="10032.000000pt" height="8688.000000pt" viewBox="0 0 10032.000000 8688.000000"
 preserveAspectRatio="xMidYMid meet">

<g transform="translate(0.000000,8688.000000) scale(0.100000,-0.100000)"
fill="#000000" stroke="none">
<path d="M0 43440 l0 -43440 50160 0 50160 0 0 43440 0 43440 -50160 0 -50160
0 0 -43440z m48298 37750 c228 -41 419 -75 730 -129 374 -66 848 -171 1357
-301 1884 -480 3802 -1168 5675 -2035 337 -155 1149 -558 1475 -730 2367
-1252 4501 -2761 6290 -4449 404 -381 1022 -1009 1340 -1361 60 -66 141 -156
181 -200 822 -912 1710 -2090 2380 -3160 230 -367 674 -1108 674 -1125 0 -5
-417 -147 -927 -315 -511 -169 -1173 -388 -1473 -487 -300 -99 -608 -201 -685
-226 -155 -51 -154 -50 -139 -60 24 -17 310 -352 455 -534 708 -889 1235
-1815 1594 -2803 166 -457 275 -828 404 -1370 101 -427 204 -1078 246 -1550 9
-99 18 -202 20 -230 40 -422 55 -1318 30 -1775 -3 -47 -10 -170 -15 -275 -6
-104 -13 -206 -15 -225 -2 -19 -9 -105 -15 -190 -18 -239 -68 -716 -105 -988
-57 -422 -178 -1166 -216 -1332 -5 -25 -37 -180 -69 -345 -153 -771 -343
-1564 -644 -2690 -78 -289 -301 -1152 -339 -1310 -175 -718 -325 -1491 -396
-2030 -26 -195 -34 -257 -37 -275 -16 -113 -58 -592 -72 -830 -9 -162 -9 -970
0 -1125 33 -528 95 -941 214 -1420 221 -890 603 -1648 1180 -2340 126 -151
474 -503 619 -626 337 -287 666 -521 1030 -734 152 -89 494 -270 498 -264 1 2
31 63 66 134 244 500 624 950 1033 1223 352 235 798 394 1278 454 159 20 680
17 843 -5 444 -60 838 -178 1222 -367 367 -181 654 -387 920 -661 151 -155
220 -240 338 -416 260 -387 410 -843 472 -1433 18 -179 18 -669 -1 -855 -119
-1180 -648 -2176 -1469 -2766 -434 -312 -931 -502 -1510 -576 -109 -13 -211
-17 -455 -17 -365 0 -408 4 -1050 94 -611 85 -1181 187 -1760 315 -229 51
-577 136 -785 191 -358 96 -981 283 -1109 333 -16 6 -30 10 -32 9 -4 -5 700
-473 866 -575 527 -325 988 -583 1531 -854 311 -156 315 -158 894 -424 1124
-517 1427 -655 1436 -655 5 0 9 -6 9 -13 0 -9 -46 -19 -152 -35 -84 -12 -254
-37 -378 -56 -124 -19 -331 -51 -460 -71 -129 -19 -320 -49 -425 -65 -104 -16
-293 -45 -420 -64 -589 -90 -715 -109 -930 -142 -126 -19 -315 -48 -420 -64
-104 -16 -293 -45 -420 -65 -126 -19 -336 -51 -465 -71 -129 -20 -336 -51
-460 -70 -124 -19 -328 -50 -455 -69 -126 -20 -315 -49 -420 -65 -104 -16
-293 -45 -420 -64 -126 -19 -336 -51 -465 -71 -221 -34 -432 -66 -885 -135
-104 -16 -296 -45 -425 -65 -129 -20 -334 -51 -455 -70 -309 -47 -646 -99
-880 -134 -110 -17 -303 -47 -430 -66 -126 -20 -333 -51 -460 -71 -126 -19
-333 -50 -460 -70 -318 -48 -580 -88 -780 -118 -93 -15 -240 -37 -325 -51 -85
-14 -200 -29 -255 -35 -130 -14 -773 -14 -985 0 -1806 115 -3291 697 -4275
1675 -631 627 -1058 1397 -1295 2335 -11 41 -37 147 -60 235 -148 588 -335
1470 -480 2265 -31 169 -78 421 -84 455 -3 17 -19 102 -36 190 -40 219 -98
526 -104 550 -2 11 -18 88 -35 170 -188 923 -372 1480 -600 1819 -147 218
-328 362 -533 425 -203 62 -494 42 -713 -50 -702 -292 -904 -1391 -589 -3202
66 -380 158 -804 266 -1227 134 -523 228 -852 458 -1605 34 -110 90 -297 126
-415 35 -118 75 -249 89 -290 24 -77 57 -185 140 -460 26 -85 53 -173 60 -195
8 -22 35 -110 60 -195 26 -85 57 -189 70 -230 13 -41 47 -151 75 -245 28 -93
58 -188 65 -210 8 -22 35 -110 60 -195 26 -85 60 -195 75 -245 16 -49 45 -144
65 -210 36 -119 61 -202 151 -490 25 -82 61 -199 80 -260 18 -60 65 -213 104
-340 39 -126 86 -279 105 -340 70 -231 148 -483 175 -570 30 -94 54 -174 165
-535 36 -118 76 -249 89 -290 13 -41 47 -151 76 -245 29 -93 76 -246 105 -340
190 -608 172 -526 136 -632 -48 -143 -162 -476 -276 -808 -59 -170 -118 -341
-130 -380 -13 -38 -71 -209 -130 -380 -59 -170 -122 -355 -140 -410 -19 -55
-77 -226 -130 -380 -53 -154 -223 -649 -377 -1100 -154 -451 -325 -950 -380
-1110 -55 -159 -112 -328 -128 -375 -16 -47 -76 -222 -133 -390 -150 -435
-766 -2237 -847 -2475 -133 -389 -200 -583 -305 -890 -59 -170 -120 -348 -135
-395 -16 -47 -74 -218 -130 -380 -56 -162 -117 -340 -135 -395 -19 -55 -78
-230 -133 -390 -55 -159 -191 -555 -302 -880 -111 -324 -251 -734 -312 -910
-60 -176 -122 -358 -138 -405 -15 -47 -76 -224 -135 -395 -100 -290 -137 -398
-300 -875 -34 -102 -154 -450 -265 -775 -286 -835 -461 -1348 -540 -1580 -38
-110 -114 -333 -170 -495 -56 -162 -133 -387 -171 -500 -39 -113 -99 -288
-134 -390 -35 -102 -95 -279 -135 -395 -171 -500 -205 -601 -335 -980 -75
-220 -168 -490 -205 -600 -38 -110 -98 -285 -133 -390 -36 -104 -113 -329
-172 -500 -59 -170 -117 -341 -130 -380 -13 -38 -73 -216 -135 -395 -61 -179
-141 -410 -177 -515 -35 -104 -94 -275 -129 -380 -36 -104 -96 -280 -134 -390
-115 -338 -333 -975 -440 -1285 -56 -162 -116 -340 -135 -395 -18 -55 -79
-233 -135 -395 -56 -162 -132 -385 -170 -495 -37 -110 -208 -609 -379 -1110
-172 -500 -333 -974 -359 -1052 -27 -81 -52 -143 -59 -143 -7 0 -13 10 -13 23
0 19 -116 733 -155 957 -14 78 -118 710 -215 1310 -22 135 -47 281 -55 325 -8
44 -26 150 -40 235 -13 85 -40 252 -60 370 -19 118 -49 298 -65 400 -17 102
-32 196 -35 210 -3 14 -10 54 -15 90 -26 161 -182 1107 -185 1120 -3 12 -19
108 -70 425 -30 187 -62 378 -70 425 -8 47 -53 317 -100 600 -46 283 -114 695
-150 915 -36 220 -84 510 -106 645 -22 135 -42 256 -45 270 -7 40 -100 609
-150 910 -24 151 -51 313 -60 360 -8 47 -26 155 -40 240 -13 85 -38 234 -54
330 -83 502 -159 966 -200 1220 -17 102 -32 196 -35 210 -3 14 -12 68 -21 120
-42 262 -175 1072 -184 1120 -6 30 -35 208 -65 395 -52 320 -62 381 -71 430
-4 25 -150 911 -249 1515 -42 250 -82 493 -90 540 -9 47 -40 238 -71 425 -30
187 -57 354 -60 370 -3 17 -18 109 -34 205 -46 281 -98 598 -115 695 -8 50
-51 311 -95 580 -80 491 -93 566 -95 575 -3 12 -18 104 -70 425 -31 187 -58
351 -61 365 -2 14 -18 111 -34 215 -17 105 -35 213 -40 240 -6 28 -35 203 -65
390 -30 187 -59 365 -65 395 -6 30 -37 222 -71 425 -33 204 -62 381 -64 395
-3 14 -10 54 -15 90 -52 317 -113 690 -125 760 -9 47 -40 238 -71 425 -30 187
-57 351 -60 365 -2 14 -15 95 -29 180 -14 85 -32 193 -40 240 -9 47 -40 238
-70 425 -30 187 -59 365 -65 395 -6 30 -37 222 -71 425 -33 204 -62 381 -65
395 -2 14 -18 106 -34 205 -16 99 -45 277 -65 395 -19 118 -49 298 -65 400
-17 102 -32 196 -35 210 -3 14 -19 108 -35 210 -17 102 -46 280 -65 395 -19
116 -46 280 -59 365 -14 85 -32 193 -41 240 -8 47 -35 211 -60 365 -76 467
-204 1245 -220 1335 -9 47 -40 238 -71 425 -30 187 -57 351 -60 365 -2 14 -11
68 -20 120 -20 128 -174 1059 -180 1090 -2 14 -9 54 -14 90 -38 237 -112 684
-120 730 -9 47 -160 962 -190 1150 -5 36 -12 76 -15 90 -2 14 -29 178 -60 365
-52 318 -67 413 -70 425 -3 12 -31 180 -110 665 -47 286 -113 684 -146 885
-33 201 -80 489 -105 640 -25 151 -47 286 -50 300 -2 14 -15 95 -29 180 -14
85 -32 193 -40 240 -9 47 -40 238 -71 425 -30 187 -57 354 -60 370 -3 17 -18
109 -34 205 -35 212 -73 440 -102 617 -12 73 -20 134 -17 138 5 4 680 -220
854 -285 83 -30 339 -106 505 -149 460 -120 988 -208 1435 -241 184 -13 665
-13 836 1 426 33 880 144 1154 282 776 389 1911 1830 3223 4092 245 423 742
1319 742 1338 0 3 -8 3 -17 1 -10 -2 -160 -20 -333 -40 -573 -64 -1236 -139
-1840 -209 -168 -20 -424 -49 -570 -65 -146 -17 -402 -46 -570 -65 -429 -49
-881 -101 -1185 -135 -143 -16 -397 -45 -565 -65 -285 -33 -459 -53 -1230
-140 -168 -19 -442 -51 -610 -70 -168 -20 -422 -49 -565 -65 -143 -16 -402
-45 -575 -65 -738 -85 -922 -106 -1224 -140 -176 -19 -320 -37 -321 -38 -1 -1
-8 -20 -17 -42 -25 -65 -357 -866 -428 -1035 -15 -36 -121 -290 -235 -565
-254 -614 -269 -650 -312 -750 l-34 -80 -14 -355 c-8 -195 -17 -411 -20 -480
-3 -69 -10 -240 -15 -380 -6 -140 -13 -293 -15 -340 -3 -47 -12 -258 -20 -470
-9 -212 -22 -547 -30 -745 -44 -1029 -53 -1281 -47 -1286 4 -4 133 -100 287
-215 154 -114 420 -312 590 -439 171 -127 433 -322 583 -434 179 -133 272
-209 272 -221 0 -10 -7 -48 -15 -86 -8 -38 -37 -188 -65 -334 -28 -146 -55
-283 -60 -305 -5 -22 -32 -159 -60 -305 -28 -146 -62 -319 -75 -385 -13 -66
-50 -250 -81 -410 -31 -159 -58 -299 -60 -310 -3 -11 -11 -56 -20 -100 -8 -44
-25 -134 -39 -200 -13 -66 -47 -239 -75 -385 -28 -146 -71 -364 -95 -485 -24
-121 -69 -350 -100 -510 -30 -159 -64 -333 -75 -385 -11 -52 -44 -223 -75
-380 -30 -157 -58 -296 -60 -310 -3 -14 -19 -92 -35 -175 -16 -82 -45 -231
-64 -330 -19 -99 -49 -250 -65 -335 -17 -85 -33 -166 -36 -180 -3 -14 -15 -74
-26 -135 -11 -60 -26 -139 -34 -175 -8 -36 -39 -195 -70 -355 -83 -430 -172
-884 -200 -1020 -13 -66 -47 -239 -75 -385 -28 -146 -69 -353 -90 -460 -21
-108 -41 -209 -45 -225 -3 -17 -15 -79 -26 -140 -11 -60 -26 -139 -34 -175 -8
-36 -39 -195 -70 -355 -30 -159 -62 -319 -70 -355 -7 -36 -16 -78 -19 -95 -10
-53 -166 -857 -186 -955 -11 -52 -44 -223 -75 -380 -30 -157 -58 -296 -60
-310 -3 -14 -12 -61 -21 -105 -8 -44 -25 -134 -39 -200 -13 -66 -47 -239 -75
-385 -28 -146 -57 -296 -65 -335 -9 -38 -38 -187 -65 -330 -28 -143 -59 -303
-70 -355 -11 -52 -45 -225 -75 -385 -31 -159 -76 -389 -100 -510 -24 -121 -66
-339 -95 -485 -28 -146 -60 -308 -70 -360 -19 -89 -39 -194 -93 -480 -22 -115
-34 -137 -48 -90 -11 38 -70 221 -144 450 -37 113 -81 252 -100 310 -41 133
-72 227 -240 750 -75 234 -152 472 -170 530 -154 494 -147 471 -295 1005 -77
278 -247 950 -306 1205 -20 85 -49 211 -65 280 -78 335 -226 1032 -293 1380
-59 310 -132 715 -191 1075 -95 574 -109 662 -170 1115 -14 102 -32 232 -40
290 -8 58 -26 204 -40 325 -26 222 -31 271 -40 335 -6 39 -59 564 -75 735 -37
407 -84 1097 -100 1490 -6 149 -15 370 -20 493 -13 288 -13 1475 0 1747 5 115
14 320 20 455 12 271 32 586 55 845 19 211 54 573 60 623 3 20 19 176 35 346
17 170 33 325 35 345 2 20 16 155 30 301 13 146 27 279 30 295 2 17 18 170 35
340 16 171 32 330 35 355 5 45 50 492 105 1045 16 165 32 318 35 340 3 22 19
177 35 345 17 168 47 465 66 660 20 195 48 479 63 630 21 201 25 278 17 287
-9 9 -1712 1176 -2638 1806 -131 89 -237 165 -235 168 2 6 65 66 942 899 55
52 148 140 206 195 58 55 288 273 510 484 l405 384 -27 121 c-15 66 -41 184
-59 261 -34 146 -80 349 -130 570 -16 72 -48 209 -70 305 -22 96 -56 245 -75
330 -19 85 -48 214 -65 285 -17 72 -46 198 -64 280 -19 83 -51 222 -71 310
-20 88 -52 228 -71 310 -60 268 -101 447 -133 585 -17 74 -45 196 -62 270 -17
74 -32 142 -34 150 -2 8 -20 87 -40 175 -20 88 -49 216 -65 285 -30 131 -78
343 -136 595 -19 83 -47 209 -64 280 -29 126 -70 303 -130 570 -16 72 -48 209
-70 305 -22 96 -56 245 -75 330 -19 85 -48 214 -65 285 -17 72 -45 198 -64
280 -19 83 -51 222 -71 310 -20 88 -51 225 -70 305 -88 389 -107 475 -135 595
-16 72 -44 191 -61 265 -17 74 -32 142 -34 150 -2 8 -20 85 -39 170 -19 85
-51 225 -71 310 -19 85 -47 205 -60 265 -14 61 -43 189 -65 285 -22 96 -54
236 -71 310 -17 74 -32 142 -34 150 -2 8 -17 74 -33 145 -31 136 -77 338 -138
603 -20 86 -51 222 -69 302 -18 80 -47 208 -65 285 -31 133 -64 280 -130 570
-16 72 -48 209 -70 305 -22 96 -56 245 -75 330 -19 85 -48 214 -65 285 -16 72
-44 191 -61 265 -17 74 -32 142 -34 150 -2 8 -20 87 -40 175 -20 88 -49 216
-65 285 -16 69 -44 195 -64 280 -19 85 -51 225 -71 310 -19 85 -49 216 -66
290 -17 74 -32 142 -34 150 -2 8 -13 58 -25 110 -11 52 -27 122 -35 155 -8 33
-37 159 -65 280 -28 121 -53 228 -56 237 -13 42 33 -3 172 -170 81 -98 295
-352 474 -567 179 -214 476 -570 660 -790 366 -438 665 -782 949 -1090 439
-476 1047 -1100 1510 -1547 204 -197 215 -206 226 -185 6 12 111 193 232 402
121 209 529 916 908 1570 378 655 711 1231 740 1280 29 50 135 232 235 405
100 173 193 334 206 358 14 23 28 42 32 42 5 0 16 -24 26 -52 10 -29 29 -80
42 -113 12 -33 104 -283 204 -555 163 -444 344 -917 355 -929 3 -2 59 49 125
113 619 596 1504 1265 2296 1733 101 59 183 111 183 114 1 6 -54 68 -464 524
-148 166 -418 467 -600 670 -181 202 -454 506 -605 675 -151 168 -426 475
-610 680 -373 416 -801 894 -1040 1160 -86 96 -199 222 -250 280 -51 58 -128
143 -170 190 -166 184 -160 176 -137 177 6 0 188 70 402 155 215 85 442 174
505 198 115 43 142 56 118 57 -7 0 -74 19 -148 41 -785 233 -937 278 -1265
375 -121 36 -382 113 -580 172 -198 59 -403 120 -455 135 -121 36 -306 90
-590 175 -124 37 -268 80 -320 95 -52 15 -212 63 -355 105 -143 42 -303 90
-355 105 -203 60 -651 193 -775 230 -71 21 -231 68 -355 105 -242 71 -355 105
-720 214 -129 38 -296 88 -370 109 -144 43 -356 105 -665 197 -104 31 -350
104 -545 162 -195 58 -398 118 -450 133 -87 26 -471 139 -1030 305 -124 37
-274 82 -335 100 -376 110 -535 159 -535 165 0 8 764 608 1045 821 923 698
2281 1578 3590 2326 786 449 1366 758 2225 1187 1346 671 2592 1218 3955 1736
1974 750 3906 1322 5912 1749 689 147 1439 283 2158 391 143 21 346 50 450 64
105 14 222 30 260 36 251 34 686 83 1215 135 350 35 958 79 1370 99 615 30
823 38 1196 44 l382 7 -254 615 c-140 338 -273 660 -295 715 -22 55 -51 125
-64 155 -13 30 -57 136 -98 235 -41 99 -158 383 -261 631 -102 249 -186 454
-186 458 0 10 25 7 258 -34z"/>
</g>
</svg>
